<mxfile host="app.diagrams.net" modified="2021-12-28T13:01:22.631Z" agent="5.0 (Macintosh; Intel Mac OS X 10_15_7) AppleWebKit/537.36 (KHTML, like Gecko) Chrome/96.0.4664.110 Safari/537.36" etag="PH_QQyhMW8ZhflSViqEH" version="16.1.0" type="github">
  <diagram id="pwVKQ5Kd1vJBPcL7Ab5C" name="第 1 页">
    <mxGraphModel dx="1426" dy="803" grid="1" gridSize="10" guides="1" tooltips="1" connect="1" arrows="1" fold="1" page="1" pageScale="1" pageWidth="1169" pageHeight="827" math="0" shadow="0">
      <root>
        <mxCell id="0" />
        <mxCell id="1" parent="0" />
        <mxCell id="cyJ4sp4e5trR-T372vE0-1" value="" style="ellipse;shape=cloud;whiteSpace=wrap;html=1;fillColor=#f5f5f5;fontColor=#333333;strokeColor=#666666;" vertex="1" parent="1">
          <mxGeometry x="270" y="324" width="140" height="94" as="geometry" />
        </mxCell>
        <mxCell id="cyJ4sp4e5trR-T372vE0-2" value="" style="html=1;shadow=0;dashed=0;align=center;verticalAlign=middle;shape=mxgraph.arrows2.arrow;dy=0;dx=23;notch=16;fillColor=#ffe6cc;strokeColor=#d79b00;" vertex="1" parent="1">
          <mxGeometry x="430" y="359.25" width="60" height="30" as="geometry" />
        </mxCell>
        <mxCell id="cyJ4sp4e5trR-T372vE0-3" value="" style="ellipse;whiteSpace=wrap;html=1;aspect=fixed;fillColor=#dae8fc;strokeColor=#6c8ebf;" vertex="1" parent="1">
          <mxGeometry x="514" y="318" width="104" height="104" as="geometry" />
        </mxCell>
        <mxCell id="cyJ4sp4e5trR-T372vE0-4" value="" style="shape=table;html=1;whiteSpace=wrap;startSize=0;container=1;collapsible=0;childLayout=tableLayout;fillColor=#d5e8d4;strokeColor=#82b366;" vertex="1" parent="1">
          <mxGeometry x="730" y="360" width="200" height="28.5" as="geometry" />
        </mxCell>
        <mxCell id="cyJ4sp4e5trR-T372vE0-5" value="" style="shape=partialRectangle;html=1;whiteSpace=wrap;collapsible=0;dropTarget=0;pointerEvents=0;fillColor=none;top=0;left=0;bottom=0;right=0;points=[[0,0.5],[1,0.5]];portConstraint=eastwest;" vertex="1" parent="cyJ4sp4e5trR-T372vE0-4">
          <mxGeometry width="200" height="29" as="geometry" />
        </mxCell>
        <mxCell id="cyJ4sp4e5trR-T372vE0-6" value="" style="shape=partialRectangle;html=1;whiteSpace=wrap;connectable=0;fillColor=none;top=0;left=0;bottom=0;right=0;overflow=hidden;pointerEvents=1;" vertex="1" parent="cyJ4sp4e5trR-T372vE0-5">
          <mxGeometry width="40" height="29" as="geometry">
            <mxRectangle width="40" height="29" as="alternateBounds" />
          </mxGeometry>
        </mxCell>
        <mxCell id="cyJ4sp4e5trR-T372vE0-7" value="" style="shape=partialRectangle;html=1;whiteSpace=wrap;connectable=0;fillColor=none;top=0;left=0;bottom=0;right=0;overflow=hidden;pointerEvents=1;" vertex="1" parent="cyJ4sp4e5trR-T372vE0-5">
          <mxGeometry x="40" width="39" height="29" as="geometry">
            <mxRectangle width="39" height="29" as="alternateBounds" />
          </mxGeometry>
        </mxCell>
        <mxCell id="cyJ4sp4e5trR-T372vE0-8" value="" style="shape=partialRectangle;html=1;whiteSpace=wrap;connectable=0;fillColor=none;top=0;left=0;bottom=0;right=0;overflow=hidden;pointerEvents=1;" vertex="1" parent="cyJ4sp4e5trR-T372vE0-5">
          <mxGeometry x="79" width="41" height="29" as="geometry">
            <mxRectangle width="41" height="29" as="alternateBounds" />
          </mxGeometry>
        </mxCell>
        <mxCell id="cyJ4sp4e5trR-T372vE0-17" style="shape=partialRectangle;html=1;whiteSpace=wrap;connectable=0;fillColor=none;top=0;left=0;bottom=0;right=0;overflow=hidden;pointerEvents=1;" vertex="1" parent="cyJ4sp4e5trR-T372vE0-5">
          <mxGeometry x="120" width="40" height="29" as="geometry">
            <mxRectangle width="40" height="29" as="alternateBounds" />
          </mxGeometry>
        </mxCell>
        <mxCell id="cyJ4sp4e5trR-T372vE0-18" style="shape=partialRectangle;html=1;whiteSpace=wrap;connectable=0;fillColor=none;top=0;left=0;bottom=0;right=0;overflow=hidden;pointerEvents=1;" vertex="1" parent="cyJ4sp4e5trR-T372vE0-5">
          <mxGeometry x="160" width="40" height="29" as="geometry">
            <mxRectangle width="40" height="29" as="alternateBounds" />
          </mxGeometry>
        </mxCell>
        <mxCell id="cyJ4sp4e5trR-T372vE0-19" value="" style="html=1;shadow=0;dashed=0;align=center;verticalAlign=middle;shape=mxgraph.arrows2.arrow;dy=0;dx=23;notch=16;fillColor=#ffe6cc;strokeColor=#d79b00;" vertex="1" parent="1">
          <mxGeometry x="640" y="360" width="60" height="30" as="geometry" />
        </mxCell>
        <mxCell id="cyJ4sp4e5trR-T372vE0-20" value="&lt;font style=&quot;font-size: 16px&quot;&gt;Data &lt;br&gt;Source&lt;/font&gt;" style="text;strokeColor=none;fillColor=none;html=1;fontSize=24;fontStyle=1;verticalAlign=middle;align=center;" vertex="1" parent="1">
          <mxGeometry x="296" y="350" width="100" height="40" as="geometry" />
        </mxCell>
        <mxCell id="cyJ4sp4e5trR-T372vE0-21" value="&lt;font style=&quot;font-size: 16px&quot;&gt;io.Reader&lt;/font&gt;" style="text;strokeColor=none;fillColor=none;html=1;fontSize=24;fontStyle=1;verticalAlign=middle;align=center;" vertex="1" parent="1">
          <mxGeometry x="516" y="351" width="100" height="40" as="geometry" />
        </mxCell>
        <mxCell id="cyJ4sp4e5trR-T372vE0-22" value="&lt;font style=&quot;font-size: 16px&quot;&gt;[]byte&lt;/font&gt;" style="text;strokeColor=none;fillColor=none;html=1;fontSize=24;fontStyle=1;verticalAlign=middle;align=center;" vertex="1" parent="1">
          <mxGeometry x="777" y="382" width="100" height="40" as="geometry" />
        </mxCell>
      </root>
    </mxGraphModel>
  </diagram>
</mxfile>
